screens;
 
http://baypic.net/img-5197794e348df.html
 
http://baypic.net/img-5197796ae1c31.html

Cast 

Dani Daniels, Cameron Dee, Abby Cross, Erik Everhard, Romi Rain, Emily Austin

Format : MPEG-4
Format profile : Base Media
Codec ID : isom
File size : 1.30 GiB
Duration : 2h 14mn
Overall bit rate mode : Variable
Overall bit rate : 1 390 Kbps
Encoded date : UTC 2013-05-18 01:54:32
Tagged date : UTC 2013-05-18 01:54:32

Video
ID : 1
Format : AVC
Format/Info : Advanced Video Codec
Format profile : High@L3.1
Format settings, CABAC : Yes
Format settings, ReFrames : 5 frames
Codec ID : avc1
Codec ID/Info : Advanced Video Coding
Duration : 2h 14mn
Bit rate : 1 263 Kbps
Maximum bit rate : 4 749 Kbps
Width : 720 pixels
Height : 404 pixels
Display aspect ratio : 16:9
Frame rate mode : Constant
Frame rate : 23.976 fps
Color space : YUV
Chroma subsampling : 4:2:0
Bit depth : 8 bits
Scan type : Progressive
Bits/(Pixel*Frame) : 0.181
Stream size : 1.18 GiB (91%)
Encoded date : UTC 2013-05-18 01:54:32
Tagged date : UTC 2013-05-18 02:35:34

Audio
ID : 2
Format : AAC
Format/Info : Advanced Audio Codec
Format profile : LC
Codec ID : 40
Duration : 2h 14mn
Bit rate mode : Variable
Bit rate : 123 Kbps
Maximum bit rate : 150 Kbps
Channel(s) : 2 channels
Channel positions : Front: L R
Sampling rate : 48.0 KHz
Compression mode : Lossy
Stream size : 118 MiB (9%)
Language : English
Encoded date : UTC 2013-05-18 00:48:09
Tagged date : UTC 2013-05-18 02:35:34